<?xml version="1.0" encoding="utf-8"?>
<!-- Generator: Adobe Illustrator 25.2.0, SVG Export Plug-In . SVG Version: 6.00 Build 0)  -->
<svg version="1.1" id="Layer_1" xmlns="http://www.w3.org/2000/svg" xmlns:xlink="http://www.w3.org/1999/xlink" x="0px" y="0px"
	 viewBox="0 0 215.51 173.72" style="enable-background:new 0 0 215.51 173.72;" xml:space="preserve">
<style type="text/css">
	.st0{fill:#FFFFFF;}
</style>
<polygon class="st0" points="120.39,100.47 120.39,114.31 136.97,106.56 136.97,92.72 "/>
<polygon class="st0" points="153.94,83.94 153.94,97.78 170.52,90.03 170.52,76.19 "/>
<path class="st0" d="M106.86,0.25L30.62,38.39l76.14,38.18l76.64-37.72L106.86,0.25z M106.75,11.12c5.47,0,9.9,2.81,9.9,6.28
	s-4.43,6.28-9.9,6.28s-9.9-2.81-9.9-6.28S101.29,11.12,106.75,11.12z M116.66,38.41c0,3.47-4.43,6.28-9.9,6.28s-9.9-2.81-9.9-6.28
	c0-3.47,4.43-6.28,9.9-6.28C112.23,32.12,116.66,34.94,116.66,38.41z M106.75,67.7c-5.47,0-9.9-2.81-9.9-6.28s4.43-6.28,9.9-6.28
	s9.9,2.81,9.9,6.28C116.66,64.88,112.22,67.7,106.75,67.7z"/>
<path class="st0" d="M106.76,78.72L0.63,25.23l14.21,24.23L0.35,60.06l29.47,14.26l-0.03,60.86l76.84,38.54l77.18-38.63l0.31-94.75
	L106.76,78.72z M182.37,91.66l-75.68,38.54l-19.57-10.37v-30.2l19.62,10.64l75.63-38.36V91.66z"/>
</svg>
