<?xml version="1.0" encoding="utf-8"?>
<!-- Generator: Adobe Illustrator 25.2.0, SVG Export Plug-In . SVG Version: 6.00 Build 0)  -->
<svg version="1.1" id="Layer_1" xmlns="http://www.w3.org/2000/svg" xmlns:xlink="http://www.w3.org/1999/xlink" x="0px" y="0px"
	 viewBox="0 0 215.51 187.99" style="enable-background:new 0 0 215.51 187.99;" xml:space="preserve">
<style type="text/css">
	.st0{fill:#FFBA00;}
</style>
<polygon class="st0" points="121.39,105.47 121.39,119.31 137.97,111.56 137.97,97.72 "/>
<polygon class="st0" points="154.94,88.94 154.94,102.78 171.52,95.03 171.52,81.19 "/>
<path class="st0" d="M107.86,5.25L31.62,43.39l76.14,38.18l76.64-37.72L107.86,5.25z M107.75,16.12c5.47,0,9.9,2.81,9.9,6.28
	s-4.43,6.28-9.9,6.28s-9.9-2.81-9.9-6.28S102.29,16.12,107.75,16.12z M117.66,43.41c0,3.47-4.43,6.28-9.9,6.28s-9.9-2.81-9.9-6.28
	c0-3.47,4.43-6.28,9.9-6.28C113.23,37.12,117.66,39.94,117.66,43.41z M107.75,72.7c-5.47,0-9.9-2.81-9.9-6.28s4.43-6.28,9.9-6.28
	s9.9,2.81,9.9,6.28C117.66,69.88,113.22,72.7,107.75,72.7z"/>
<path class="st0" d="M107.76,83.72L1.63,30.23l14.21,24.23L1.35,65.06l29.47,14.26l-0.03,60.86l76.84,38.54l77.18-38.63l0.31-94.75
	L107.76,83.72z M183.37,96.66l-75.68,38.54l-19.57-10.37v-30.2l19.62,10.64l75.63-38.36V96.66z"/>
</svg>
